<svg width="208" height="66" viewBox="0 0 208 66" fill="none" xmlns="http://www.w3.org/2000/svg">
<rect width="208" height="66" rx="8" fill="#F0F1F4"/>
<path d="M85.6693 27.5347C86.5713 27.4548 87.5124 27.8145 88.1398 28.1741C90.4141 29.6128 90.6494 32.6898 89.277 34.9677C88.5711 36.1665 87.1987 37.3254 85.5125 37.6051C83.7479 37.8849 81.199 37.6451 79.3168 37.6451C77.1601 37.6451 75.8661 36.8858 75.121 35.4072C73.6309 32.4101 76.1013 28.5338 79.4345 27.6946C80.2579 27.4948 84.3753 27.6147 85.6693 27.5347ZM79.3952 22.2598C77.1993 22.5794 74.9249 23.6185 73.278 25.0171C71.1997 26.8154 69.239 29.8126 69.1998 32.8497C69.1606 36.3663 70.2978 39.0837 72.8858 41.0818C74.2583 42.1608 75.4739 42.6803 76.6895 42.96H85.5517C87.8261 42.7203 89.8652 42.0809 91.6298 40.4025C95.0805 37.1656 96.7667 31.9705 94.7276 27.295C93.4336 24.3378 91.1592 22.6594 87.9829 22.1798C86.8457 22.0599 80.8853 22.0599 79.3952 22.2598ZM113.236 27.6147C114.021 27.6147 114.687 28.1342 114.609 28.8934C114.491 29.7726 113.119 29.9324 112.138 29.9324L97.5509 30.0124C97.4333 30.8516 96.4138 35.4872 96.2177 36.4862C96.1001 37.0856 94.806 42.7602 94.9629 42.9201L98.0999 42.96H112.295C113.903 42.8402 115.824 41.8011 116.922 41.0419C118.256 40.1227 119.863 38.3644 119.863 36.0067C119.863 35.4072 119.667 34.568 119.471 34.1684C119.236 33.569 118.922 33.2093 118.648 32.6898C118.844 32.3701 119.157 32.1703 119.393 31.8906C120.02 31.0913 120.804 29.7326 120.804 28.6137C120.804 27.5347 120.765 26.7755 120.216 25.8164C119.902 25.2569 119.471 24.7374 119.079 24.3378C116.412 21.9401 113.903 22.2997 110.648 22.2997L102.139 22.3397L97.9431 27.6147H113.236ZM131.549 37.725C130.176 37.725 128.804 37.2455 127.863 36.2464C124.883 33.1694 128.176 27.6546 132.686 27.6546H137.705C138.803 27.6546 139.352 27.6546 140.176 28.0542C144.136 30.0923 141.98 37.725 136.647 37.725H131.549ZM134.568 42.96C137.274 42.9201 139.274 43.1598 141.744 41.921C143.038 41.2017 143.783 40.5224 144.646 39.5633C146.254 37.8849 147.705 34.5281 147.705 32.1304C147.705 30.2521 147.665 29.1332 146.96 27.3749C145.783 24.4976 143.117 22.1798 139.627 22.1798H132.333C130.608 22.0599 128.686 22.6993 127.431 23.4586C126.294 24.098 125.275 24.9772 124.53 25.8963C122.961 27.8145 121.667 30.2921 121.667 33.7288C121.667 38.4044 124.686 42.2807 128.686 42.9201C129 42.96 129.47 43 130.059 43H134.568V42.96ZM100.374 35.3673H112.687C113.315 35.3673 113.981 35.8868 113.981 36.5262C113.981 37.1656 113.315 37.6851 112.687 37.6851H99.7861L100.374 35.3673ZM33.006 32.53H38.339L36.8097 42.96H21.9087C19.8304 42.7203 17.6737 41.0019 16.5365 39.2436C12.772 33.529 16.3404 25.0971 22.7322 22.7393C23.3204 22.5395 24.0654 22.2997 24.732 22.1798C26.4574 21.9001 28.3004 22.02 30.065 22.0599L55.3183 22.0999C58.7691 22.0999 62.5728 21.7402 65.1608 23.1789C70.337 26.0961 69.239 32.6898 64.2982 36.1265C63.9844 36.3264 63.6707 36.5262 63.357 36.7659C63.4747 37.0457 66.847 40.9619 67.3176 41.5214C67.5136 41.7212 68.4155 42.7203 68.494 43H60.769L56.181 37.725H49.0834L48.2992 42.96H42.8485L44.2602 32.53H59.2789C61.9454 32.53 63.71 29.7726 61.8669 28.1741C61.318 27.6946 61.0042 27.6546 60.0631 27.6946L44.966 27.6147C44.6523 27.6147 25.2418 27.5347 24.6144 27.6147C21.791 28.0143 19.8696 31.6108 20.9284 34.7279C21.4381 36.2464 22.8498 37.6451 24.4575 37.6851H32.1433L33.006 32.53ZM155.39 27.6147L153.626 42.96H158.92L160.488 27.6147H183.82C187.898 27.6147 186.683 32.2902 183.898 32.45C182.879 32.49 181.663 32.49 180.605 32.49L169.507 32.53C169.272 32.53 168.958 32.49 168.762 32.6099L167.547 42.96H172.88L173.468 37.725H183.742C185.624 37.725 187.859 36.4862 189.035 35.3673C191.976 32.6099 193.388 27.5347 190.133 24.3777C187.545 21.8601 185.075 22.2598 181.506 22.2598L152.332 22.2198L148.332 27.6147H155.39Z" fill="#005AA7"/>
</svg>
