<svg width="47" height="47" viewBox="0 0 47 47" fill="none" xmlns="http://www.w3.org/2000/svg">
<path d="M16.6005 7.96859C17.639 6.53256 19.5427 6.02246 21.16 6.74687C22.3928 7.29902 23.8025 7.29902 25.0353 6.74687C26.6526 6.02246 28.5563 6.53256 29.5948 7.96859C30.3863 9.06313 31.6072 9.76801 32.9508 9.9062C34.7137 10.0875 36.1073 11.4811 36.2886 13.244C36.4268 14.5877 37.1317 15.8085 38.2262 16.6C39.6622 17.6385 40.1723 19.5422 39.4479 21.1595C38.8958 22.3923 38.8958 23.802 39.4479 25.0348C40.1724 26.6521 39.6622 28.5558 38.2262 29.5943C37.1317 30.3858 36.4268 31.6067 36.2886 32.9503C36.1073 34.7132 34.7137 36.1068 32.9508 36.2881C31.6072 36.4263 30.3863 37.1312 29.5948 38.2257C28.5563 39.6617 26.6526 40.1718 25.0353 39.4474C23.8025 38.8953 22.3928 38.8953 21.16 39.4474C19.5427 40.1719 17.639 39.6617 16.6005 38.2257C15.809 37.1312 14.5882 36.4263 13.2445 36.2881C11.4816 36.1068 10.088 34.7132 9.9067 32.9503C9.76851 31.6067 9.06363 30.3858 7.96909 29.5943C6.53306 28.5558 6.02296 26.6521 6.74737 25.0348C7.29952 23.802 7.29952 22.3923 6.74737 21.1595C6.02296 19.5422 6.53306 17.6385 7.96909 16.6C9.06363 15.8085 9.76851 14.5877 9.9067 13.244C10.088 11.4811 11.4816 10.0875 13.2445 9.9062C14.5881 9.76801 15.809 9.06313 16.6005 7.96859Z" fill="white" stroke="#1978EE"/>
<circle cx="19.0233" cy="18.6951" r="2.31233" stroke="#1978EE"/>
<circle cx="27.6248" cy="27.9569" r="2.31233" stroke="#1978EE"/>
<path d="M16.2109 30.7695L30.438 16.5424" stroke="#1978EE" stroke-linecap="round"/>
</svg>
