<svg width="86" height="86" viewBox="0 0 86 86" fill="none" xmlns="http://www.w3.org/2000/svg">
<g id="Stock">
<circle id="Ellipse 35" cx="43" cy="43" r="43" fill="#0149BF"/>
<g id="Group 28093">
<path id="Star 1" d="M36.6005 27.9696C37.639 26.5335 39.5427 26.0234 41.16 26.7479C42.3928 27.3 43.8025 27.3 45.0353 26.7479C46.6526 26.0234 48.5563 26.5335 49.5948 27.9696C50.3863 29.0641 51.6072 29.769 52.9508 29.9072C54.7137 30.0885 56.1073 31.4821 56.2886 33.245C56.4268 34.5886 57.1317 35.8095 58.2262 36.601C59.6622 37.6395 60.1723 39.5432 59.4479 41.1605C58.8958 42.3933 58.8958 43.803 59.4479 45.0357C60.1724 46.6531 59.6622 48.5568 58.2262 49.5953C57.1317 50.3868 56.4268 51.6076 56.2886 52.9513C56.1073 54.7142 54.7137 56.1078 52.9508 56.2891C51.6072 56.4273 50.3863 57.1322 49.5948 58.2267C48.5563 59.6627 46.6526 60.1728 45.0353 59.4484C43.8025 58.8963 42.3928 58.8963 41.16 59.4484C39.5427 60.1728 37.639 59.6627 36.6005 58.2267C35.809 57.1322 34.5882 56.4273 33.2445 56.2891C31.4816 56.1078 30.088 54.7142 29.9067 52.9513C29.7685 51.6076 29.0636 50.3868 27.9691 49.5953C26.5331 48.5568 26.023 46.6531 26.7474 45.0357C27.2995 43.803 27.2995 42.3933 26.7474 41.1605C26.023 39.5432 26.5331 37.6395 27.9691 36.601C29.0636 35.8095 29.7685 34.5886 29.9067 33.245C30.088 31.4821 31.4816 30.0885 33.2445 29.9072C34.5881 29.769 35.809 29.0641 36.6005 27.9696Z" fill="white" stroke="#1978EE"/>
<g id="Group 28081">
<circle id="Ellipse 176" cx="39.0233" cy="38.6942" r="2.31233" stroke="#1978EE"/>
<circle id="Ellipse 177" cx="47.6248" cy="47.9578" r="2.31233" stroke="#1978EE"/>
<path id="Line 255" d="M36.2109 50.7705L50.438 36.5434" stroke="#1978EE" stroke-linecap="round"/>
</g>
</g>
</g>
</svg>
