<svg width="28" height="20" viewBox="0 0 28 20" fill="none" xmlns="http://www.w3.org/2000/svg">
<path id="Union" fill-rule="evenodd" clip-rule="evenodd" d="M0.742188 1.6263C0.742188 0.855405 1.36712 0.230469 2.13802 0.230469H6.32552C7.09642 0.230469 7.72135 0.855405 7.72135 1.6263V7.20964C7.72135 7.98053 7.09642 8.60547 6.32552 8.60547H2.13802C1.36712 8.60547 0.742188 7.98053 0.742188 7.20964V1.6263ZM10.513 1.6263C10.513 0.855405 11.138 0.230469 11.9089 0.230469H16.0964C16.8673 0.230469 17.4922 0.855405 17.4922 1.6263V7.20964C17.4922 7.98053 16.8673 8.60547 16.0964 8.60547H11.9089C11.138 8.60547 10.513 7.98053 10.513 7.20964V1.6263ZM21.6797 0.230469C20.9088 0.230469 20.2839 0.855405 20.2839 1.6263V7.20964C20.2839 7.98053 20.9088 8.60547 21.6797 8.60547H25.8672C26.6381 8.60547 27.263 7.98053 27.263 7.20964V1.6263C27.263 0.855405 26.6381 0.230469 25.8672 0.230469H21.6797ZM21.6797 11.3971C20.9088 11.3971 20.2839 12.0221 20.2839 12.793V18.3763C20.2839 19.1472 20.9088 19.7721 21.6797 19.7721H25.8672C26.6381 19.7721 27.263 19.1472 27.263 18.3763V12.793C27.263 12.0221 26.6381 11.3971 25.8672 11.3971H21.6797ZM11.9089 11.3971C11.138 11.3971 10.513 12.0221 10.513 12.793V18.3763C10.513 19.1472 11.138 19.7721 11.9089 19.7721H16.0964C16.8673 19.7721 17.4922 19.1472 17.4922 18.3763V12.793C17.4922 12.0221 16.8673 11.3971 16.0964 11.3971H11.9089ZM2.13802 11.3971C1.36712 11.3971 0.742188 12.0221 0.742188 12.793V18.3763C0.742188 19.1472 1.36712 19.7721 2.13802 19.7721H6.32552C7.09642 19.7721 7.72135 19.1472 7.72135 18.3763V12.793C7.72135 12.0221 7.09642 11.3971 6.32552 11.3971H2.13802Z" fill="#323232" fill-opacity="0.3"/>
</svg>
