<svg width="21" height="18" viewBox="0 0 21 18" fill="none" xmlns="http://www.w3.org/2000/svg">
<path d="M18.4265 2.26482C17.9736 1.81616 17.4358 1.46025 16.844 1.21742C16.2521 0.974593 15.6178 0.849609 14.9771 0.849609C14.3365 0.849609 13.7021 0.974593 13.1102 1.21742C12.5184 1.46025 11.9806 1.81616 11.5277 2.26482L10.5878 3.19552L9.64786 2.26482C8.73302 1.35898 7.49224 0.850079 6.19848 0.850079C4.90471 0.850079 3.66393 1.35898 2.74909 2.26482C1.83426 3.17067 1.32031 4.39925 1.32031 5.68031C1.32031 6.96137 1.83426 8.18996 2.74909 9.0958L3.68903 10.0265L10.5878 16.8575L17.4866 10.0265L18.4265 9.0958C18.8796 8.64735 19.239 8.11489 19.4843 7.52885C19.7295 6.94281 19.8557 6.31467 19.8557 5.68031C19.8557 5.04596 19.7295 4.41781 19.4843 3.83177C19.239 3.24573 18.8796 2.71327 18.4265 2.26482Z" stroke="#323232" stroke-opacity="0.5" stroke-width="0.84252" stroke-linecap="round" stroke-linejoin="round"/>
</svg>
