<svg width="22" height="19" viewBox="0 0 22 19" fill="none" xmlns="http://www.w3.org/2000/svg">
<path d="M20.3036 1.67974C19.766 1.14721 19.1278 0.724775 18.4253 0.43656C17.7228 0.148345 16.9699 0 16.2095 0C15.4491 0 14.6961 0.148345 13.9936 0.43656C13.2912 0.724775 12.6529 1.14721 12.1153 1.67974L10.9997 2.7844L9.8841 1.67974C8.79827 0.604577 7.32556 0.000557294 5.78997 0.000557305C4.25437 0.000557316 2.78167 0.604577 1.69584 1.67974C0.610013 2.7549 1.14411e-08 4.21313 0 5.73364C-1.14411e-08 7.25415 0.610013 8.71238 1.69584 9.78754L2.81147 10.8922L10.9997 19L19.188 10.8922L20.3036 9.78754C20.8414 9.25526 21.268 8.62328 21.5591 7.9277C21.8502 7.23212 22 6.48657 22 5.73364C22 4.98071 21.8502 4.23516 21.5591 3.53958C21.268 2.84399 20.8414 2.21201 20.3036 1.67974Z" fill="#0149BF"/>
</svg>
