<svg width="31" height="27" viewBox="0 0 31 27" fill="none" xmlns="http://www.w3.org/2000/svg">
<path d="M27.0602 3.37117C26.3967 2.70737 25.6089 2.18079 24.7418 1.82152C23.8748 1.46226 22.9454 1.27734 22.0069 1.27734C21.0684 1.27734 20.139 1.46226 19.272 1.82152C18.4049 2.18079 17.6171 2.70737 16.9536 3.37117L15.5767 4.74815L14.1997 3.37117C12.8595 2.03096 11.0417 1.27804 9.1464 1.27804C7.25106 1.27804 5.43334 2.03096 4.09313 3.37117C2.75292 4.71138 2 6.5291 2 8.42444C2 10.3198 2.75292 12.1375 4.09313 13.4777L5.47012 14.8547L15.5767 24.9612L25.6832 14.8547L27.0602 13.4777C27.724 12.8142 28.2506 12.0264 28.6098 11.1594C28.9691 10.2923 29.154 9.36298 29.154 8.42444C29.154 7.4859 28.9691 6.55655 28.6098 5.6895C28.2506 4.82244 27.724 4.03466 27.0602 3.37117Z" stroke="#323232" stroke-opacity="0.5" stroke-width="2.45637" stroke-linecap="round" stroke-linejoin="round"/>
</svg>
