<svg width="28" height="24" viewBox="0 0 28 24" fill="none" xmlns="http://www.w3.org/2000/svg">
<path d="M25.0602 2.37117C24.3967 1.70737 23.6089 1.18079 22.7418 0.821524C21.8748 0.462259 20.9454 0.277344 20.0069 0.277344C19.0684 0.277344 18.139 0.462259 17.272 0.821524C16.4049 1.18079 15.6171 1.70737 14.9536 2.37117L13.5767 3.74815L12.1997 2.37117C10.8595 1.03096 9.04175 0.278038 7.1464 0.278038C5.25106 0.278038 3.43334 1.03096 2.09313 2.37117C0.752922 3.71138 1.41214e-08 5.5291 0 7.42444C-1.41214e-08 9.31978 0.752922 11.1375 2.09313 12.4777L3.47012 13.8547L13.5767 23.9612L23.6832 13.8547L25.0602 12.4777C25.724 11.8142 26.2506 11.0264 26.6098 10.1594C26.9691 9.29233 27.154 8.36298 27.154 7.42444C27.154 6.4859 26.9691 5.55655 26.6098 4.6895C26.2506 3.82244 25.724 3.03466 25.0602 2.37117Z" fill="#0149BF"/>
</svg>
