<svg width="104" height="104" viewBox="0 0 104 104" fill="none" xmlns="http://www.w3.org/2000/svg">
<g filter="url(#filter0_d_966_46379)">
<path d="M20 17C20 13.134 23.134 10 27 10H77C80.866 10 84 13.134 84 17V67C84 70.866 80.866 74 77 74H27C23.134 74 20 70.866 20 67V17Z" fill="white"/>
<path d="M61.914 32.836C61.352 32.2738 60.6847 31.8277 59.9503 31.5234C59.2159 31.2191 58.4287 31.0625 57.6338 31.0625C56.8388 31.0625 56.0516 31.2191 55.3172 31.5234C54.5828 31.8277 53.9155 32.2738 53.3535 32.836L52.1872 34.0023L51.0209 32.836C49.8857 31.7008 48.346 31.0631 46.7406 31.0631C45.1353 31.0631 43.5956 31.7008 42.4604 32.836C41.3252 33.9712 40.6875 35.5108 40.6875 37.1162C40.6875 38.7216 41.3252 40.2613 42.4604 41.3965L43.6268 42.5628L52.1872 51.1232L60.7477 42.5628L61.914 41.3965C62.4762 40.8345 62.9223 40.1672 63.2266 39.4328C63.5309 38.6984 63.6875 37.9112 63.6875 37.1162C63.6875 36.3213 63.5309 35.5341 63.2266 34.7997C62.9223 34.0653 62.4762 33.398 61.914 32.836Z" stroke="#0149BF" stroke-width="2" stroke-linecap="round" stroke-linejoin="round"/>
</g>
<defs>
<filter id="filter0_d_966_46379" x="0" y="0" width="104" height="104" filterUnits="userSpaceOnUse" color-interpolation-filters="sRGB">
<feFlood flood-opacity="0" result="BackgroundImageFix"/>
<feColorMatrix in="SourceAlpha" type="matrix" values="0 0 0 0 0 0 0 0 0 0 0 0 0 0 0 0 0 0 127 0" result="hardAlpha"/>
<feOffset dy="10"/>
<feGaussianBlur stdDeviation="10"/>
<feComposite in2="hardAlpha" operator="out"/>
<feColorMatrix type="matrix" values="0 0 0 0 0 0 0 0 0 0 0 0 0 0 0 0 0 0 0.05 0"/>
<feBlend mode="normal" in2="BackgroundImageFix" result="effect1_dropShadow_966_46379"/>
<feBlend mode="normal" in="SourceGraphic" in2="effect1_dropShadow_966_46379" result="shape"/>
</filter>
</defs>
</svg>
