<svg width="86" height="86" viewBox="0 0 86 86" fill="none" xmlns="http://www.w3.org/2000/svg">
<g id="Stock">
<circle id="Ellipse 35" cx="43" cy="43" r="43" fill="#0149BF"/>
<g id="Group 28073">
<path id="Vector 127" d="M27.3385 28.3128L42.4173 23.6331C42.6474 23.5617 42.8937 23.5617 43.1237 23.6331L58.2025 28.3128C58.7012 28.4675 59.041 28.9288 59.041 29.4509V43.8186C59.041 48.0346 56.0178 52.1277 52.4527 55.4671C48.9113 58.7842 44.9521 61.2499 43.3061 62.2147C42.9702 62.4116 42.5708 62.4116 42.235 62.2147C40.5889 61.2499 36.6297 58.7842 33.0883 55.4671C29.5232 52.1277 26.5 48.0346 26.5 43.8186V29.4509C26.5 28.9288 26.8398 28.4675 27.3385 28.3128Z" fill="white" stroke="#1978EE"/>
<path id="Line 248" d="M40.5117 48.2959L49.0617 37.6085" stroke="#1978EE" stroke-linecap="round"/>
<path id="Vector 128" d="M35.6394 36.4439C35.6394 35.9489 35.8322 35.1445 36.9888 35.1445C38.1248 35.1445 39.4467 37.1143 35.4752 39.9986C35.4083 40.0472 35.4394 40.1564 35.5221 40.1564H38.3381" stroke="#1978EE" stroke-linecap="round"/>
<path id="Vector 129" d="M40.6484 35.5293V38.1296C40.6484 38.1764 40.6863 38.2142 40.733 38.2142H42.9616M42.9616 38.2142V40.5412M42.9616 38.2142V35.5293" stroke="#1978EE" stroke-linecap="round"/>
<path id="Vector 130" d="M47.2031 44.3965H49.403C49.4595 44.3965 49.5001 44.4509 49.4841 44.5051L48.0293 49.4084" stroke="#1978EE" stroke-linecap="round"/>
<path id="Ellipse 170" d="M53.0255 34.6235C52.865 34.3988 52.5528 34.3467 52.328 34.5072C52.1033 34.6677 52.0513 34.98 52.2117 35.2047L53.0255 34.6235ZM54.8079 43.7139L54.3123 43.6478L54.8079 43.7139ZM41.7525 54.3932L41.786 53.8943L41.7525 54.3932ZM33.5613 50.503L33.9268 50.1618L33.5613 50.503ZM30.2422 42.0643L29.7422 42.0635L30.2422 42.0643ZM33.5883 33.6362L33.224 33.2938L33.5883 33.6362ZM41.7919 29.7722L41.76 29.2732L41.7919 29.7722ZM50.469 33.0577C50.7439 33.031 50.9451 32.7866 50.9185 32.5118L50.4846 28.0327C50.458 27.7579 50.2136 27.5567 49.9387 27.5833C49.6639 27.6099 49.4626 27.8543 49.4893 28.1292L49.875 32.1105L45.8936 32.4962C45.6187 32.5228 45.4175 32.7672 45.4441 33.0421C45.4708 33.317 45.7152 33.5182 45.99 33.4916L50.469 33.0577ZM52.2117 35.2047C53.9584 37.6504 54.7093 40.6688 54.3123 43.6478L55.3035 43.7799C55.7341 40.5493 54.9197 37.2758 53.0255 34.6235L52.2117 35.2047ZM54.3123 43.6478C53.9152 46.6268 52.3999 49.3432 50.0737 51.2461L50.7069 52.0201C53.2296 49.9565 54.8729 47.0106 55.3035 43.7799L54.3123 43.6478ZM50.0737 51.2461C47.7475 53.1489 44.7846 54.0957 41.786 53.8943L41.719 54.8921C44.9709 55.1105 48.1842 54.0837 50.7069 52.0201L50.0737 51.2461ZM41.786 53.8943C38.7875 53.693 35.9777 52.3586 33.9268 50.1618L33.1959 50.8442C35.42 53.2266 38.4671 54.6737 41.719 54.8921L41.786 53.8943ZM33.9268 50.1618C31.8759 47.965 30.7374 45.0704 30.7422 42.0651L29.7422 42.0635C29.737 45.3227 30.9717 48.4619 33.1959 50.8442L33.9268 50.1618ZM30.7422 42.0651C30.747 39.0597 31.8948 36.1688 33.9527 33.9786L33.224 33.2938C30.9922 35.669 29.7474 38.8042 29.7422 42.0635L30.7422 42.0651ZM33.9527 33.9786C36.0107 31.7884 38.8246 30.463 41.8239 30.2712L41.76 29.2732C38.5075 29.4812 35.4558 30.9186 33.224 33.2938L33.9527 33.9786ZM41.8239 30.2712C44.8231 30.0795 47.7829 31.0357 50.103 32.946L50.7386 32.174C48.2225 30.1023 45.0126 29.0653 41.76 29.2732L41.8239 30.2712Z" fill="#1978EE"/>
</g>
</g>
</svg>
