<svg width="37" height="38" viewBox="0 0 37 38" fill="none" xmlns="http://www.w3.org/2000/svg">
<path d="M8.625 33.6854V4.31201C8.625 2.52814 10.0711 1.08203 11.855 1.08203H26.122C26.9787 1.08203 27.8002 1.42233 28.406 2.02807L34.885 8.50707C35.4907 9.11281 35.831 9.93437 35.831 10.791V33.6854C35.831 35.4693 34.3849 36.9154 32.601 36.9154H11.855C10.0711 36.9154 8.625 35.4693 8.625 33.6854Z" fill="white" stroke="#1978EE"/>
<path d="M26.4375 1.08203V7.419C26.4375 9.20287 27.8836 10.649 29.6675 10.649H35.7482" stroke="#1978EE"/>
<line x1="16.6016" y1="9.89062" x2="21.0684" y2="9.89062" stroke="#1978EE" stroke-linecap="round"/>
<line x1="25.8203" y1="20.9961" x2="30.2871" y2="20.9961" stroke="#1978EE" stroke-linecap="round"/>
<line x1="23.5156" y1="15.6172" x2="30.545" y2="15.6172" stroke="#1978EE" stroke-linecap="round"/>
<line x1="23.5156" y1="26.6367" x2="30.545" y2="26.6367" stroke="#1978EE" stroke-linecap="round"/>
<path d="M19.4433 22.9482C19.4433 28.0973 15.2691 32.2714 10.1201 32.2714C4.97101 32.2714 0.796875 28.0973 0.796875 22.9482C0.796875 17.7991 4.97101 13.625 10.1201 13.625C15.2691 13.625 19.4433 17.7991 19.4433 22.9482Z" fill="white" stroke="#1978EE"/>
<path d="M10.1652 17.707V22.8202L7.1875 25.7979" stroke="#1978EE" stroke-linecap="round"/>
</svg>
