<svg width="86" height="86" viewBox="0 0 86 86" fill="none" xmlns="http://www.w3.org/2000/svg">
<circle cx="43" cy="43" r="42.5" stroke="#C6DFF5" stroke-opacity="0.7"/>
<path d="M31.6211 57.6873V28.314C31.6211 26.5301 33.0672 25.084 34.8511 25.084H49.1181C49.9748 25.084 50.7963 25.4243 51.4021 26.03L57.8811 32.509C58.4868 33.1148 58.8271 33.9363 58.8271 34.793V57.6873C58.8271 59.4712 57.381 60.9173 55.5971 60.9173H34.8511C33.0672 60.9173 31.6211 59.4712 31.6211 57.6873Z" fill="white" stroke="#1978EE"/>
<path d="M49.4297 25.084V31.4209C49.4297 33.2048 50.8758 34.6509 52.6597 34.6509H58.7404" stroke="#1978EE"/>
<line x1="39.5938" y1="33.8945" x2="44.0606" y2="33.8945" stroke="#1978EE" stroke-linecap="round"/>
<line x1="48.8203" y1="45" x2="53.2871" y2="45" stroke="#1978EE" stroke-linecap="round"/>
<line x1="46.5156" y1="39.6172" x2="53.545" y2="39.6172" stroke="#1978EE" stroke-linecap="round"/>
<line x1="46.5156" y1="50.6367" x2="53.545" y2="50.6367" stroke="#1978EE" stroke-linecap="round"/>
<path d="M42.4394 46.9511C42.4394 52.1002 38.2652 56.2743 33.1162 56.2743C27.9671 56.2743 23.793 52.1002 23.793 46.9511C23.793 41.8021 27.9671 37.6279 33.1162 37.6279C38.2652 37.6279 42.4394 41.8021 42.4394 46.9511Z" fill="white" stroke="#1978EE"/>
<path d="M33.1613 41.7109V46.8241L30.1836 49.8018" stroke="#1978EE" stroke-linecap="round"/>
</svg>
