<svg width="34" height="41" viewBox="0 0 34 41" fill="none" xmlns="http://www.w3.org/2000/svg">
<path d="M1.33848 5.31278L16.4173 0.633144C16.6474 0.561745 16.8937 0.561745 17.1237 0.633144L32.2025 5.31278C32.7012 5.46752 33.041 5.92883 33.041 6.45092V20.8186C33.041 25.0346 30.0178 29.1277 26.4527 32.4671C22.9113 35.7842 18.9521 38.2499 17.3061 39.2147C16.9702 39.4116 16.5708 39.4116 16.235 39.2147C14.5889 38.2499 10.6297 35.7842 7.08835 32.4671C3.52322 29.1277 0.5 25.0346 0.5 20.8186V6.45092C0.5 5.92883 0.839844 5.46752 1.33848 5.31278Z" fill="white" stroke="#1978EE"/>
<path d="M14.5078 25.2969L23.0578 14.6094" stroke="#1978EE" stroke-linecap="round"/>
<path d="M9.63553 13.4439C9.63553 12.9489 9.82829 12.1445 10.9849 12.1445C12.1209 12.1445 13.4428 14.1143 9.47133 16.9986C9.40442 17.0472 9.43554 17.1564 9.51823 17.1564H12.3342" stroke="#1978EE" stroke-linecap="round"/>
<path d="M14.6484 12.5312V15.1316C14.6484 15.1783 14.6863 15.2162 14.733 15.2162H16.9616M16.9616 15.2162V17.5431M16.9616 15.2162V12.5312" stroke="#1978EE" stroke-linecap="round"/>
<path d="M21.2031 21.3984H23.403C23.4595 21.3984 23.5001 21.4529 23.4841 21.5071L22.0293 26.4103" stroke="#1978EE" stroke-linecap="round"/>
<path d="M27.0255 11.6225C26.865 11.3978 26.5528 11.3457 26.328 11.5062C26.1033 11.6667 26.0513 11.979 26.2117 12.2037L27.0255 11.6225ZM28.8079 20.7129L28.3123 20.6469L28.8079 20.7129ZM15.7525 31.3922L15.786 30.8934L15.7525 31.3922ZM7.56135 27.502L7.92682 27.1608L7.56135 27.502ZM4.2422 19.0633L3.7422 19.0625L4.2422 19.0633ZM7.58835 10.6352L7.22396 10.2928L7.58835 10.6352ZM15.7919 6.77125L15.76 6.27227L15.7919 6.77125ZM24.469 10.0567C24.7439 10.0301 24.9451 9.78565 24.9185 9.5108L24.4846 5.03176C24.458 4.75691 24.2136 4.55568 23.9387 4.58231C23.6639 4.60893 23.4626 4.85333 23.4893 5.12819L23.875 9.10955L19.8936 9.49524C19.6187 9.52187 19.4175 9.76627 19.4441 10.0411C19.4708 10.316 19.7152 10.5172 19.99 10.4906L24.469 10.0567ZM26.2117 12.2037C27.9584 14.6494 28.7093 17.6679 28.3123 20.6469L29.3035 20.779C29.7341 17.5483 28.9197 14.2748 27.0255 11.6225L26.2117 12.2037ZM28.3123 20.6469C27.9152 23.6258 26.3999 26.3423 24.0737 28.2451L24.7069 29.0191C27.2296 26.9555 28.8729 24.0096 29.3035 20.779L28.3123 20.6469ZM24.0737 28.2451C21.7475 30.148 18.7846 31.0947 15.786 30.8934L15.719 31.8911C18.9709 32.1095 22.1842 31.0827 24.7069 29.0191L24.0737 28.2451ZM15.786 30.8934C12.7875 30.692 9.97773 29.3576 7.92682 27.1608L7.19587 27.8433C9.42004 30.2256 12.4671 31.6727 15.719 31.8911L15.786 30.8934ZM7.92682 27.1608C5.87592 24.9641 4.73739 22.0694 4.7422 19.0641L3.7422 19.0625C3.73699 22.3217 4.97169 25.4609 7.19587 27.8433L7.92682 27.1608ZM4.7422 19.0641C4.74701 16.0588 5.8948 13.1678 7.95273 10.9776L7.22396 10.2928C4.99217 12.668 3.74742 15.8033 3.7422 19.0625L4.7422 19.0641ZM7.95273 10.9776C10.0107 8.78739 12.8246 7.46199 15.8239 7.27023L15.76 6.27227C12.5075 6.48023 9.45575 7.9176 7.22396 10.2928L7.95273 10.9776ZM15.8239 7.27023C18.8231 7.07847 21.7829 8.03472 24.103 9.945L24.7386 9.17301C22.2225 7.10135 19.0126 6.06431 15.76 6.27227L15.8239 7.27023Z" fill="#1978EE"/>
</svg>
