<svg width="16" height="16" viewBox="0 0 16 16" fill="none" xmlns="http://www.w3.org/2000/svg">
<g clip-path="url(#clip0_838_5774)">
<path d="M8.12453 15.3581C8.12453 15.3581 13.7959 9.98352 13.7959 5.90578C13.7959 4.40163 13.1984 2.95909 12.1348 1.89549C11.0712 0.831896 9.62868 0.234375 8.12453 0.234375C6.62038 0.234375 5.17784 0.831896 4.11424 1.89549C3.05065 2.95909 2.45313 4.40163 2.45312 5.90578C2.45313 9.98352 8.12453 15.3581 8.12453 15.3581ZM8.12453 8.74148C7.37245 8.74148 6.65118 8.44272 6.11939 7.91092C5.58759 7.37913 5.28883 6.65785 5.28883 5.90578C5.28883 5.1537 5.58759 4.43243 6.11939 3.90064C6.65118 3.36884 7.37245 3.07008 8.12453 3.07008C8.8766 3.07008 9.59788 3.36884 10.1297 3.90064C10.6615 4.43243 10.9602 5.1537 10.9602 5.90578C10.9602 6.65785 10.6615 7.37913 10.1297 7.91092C9.59788 8.44272 8.8766 8.74148 8.12453 8.74148Z" fill="#0149BF"/>
</g>
<defs>
<clipPath id="clip0_838_5774">
<rect width="15.1237" height="15.1237" fill="white" transform="translate(0.5625 0.234375)"/>
</clipPath>
</defs>
</svg>
