<svg width="25" height="24" viewBox="0 0 25 24" fill="none" xmlns="http://www.w3.org/2000/svg">
<g id="&#208;&#152;&#208;&#186;&#208;&#190;&#208;&#189;&#208;&#186;&#208;&#184;">
<path id="Vector" d="M20.112 5.41452C19.6722 4.96607 19.15 4.61034 18.5752 4.36763C18.0005 4.12492 17.3844 4 16.7623 4C16.1401 4 15.5241 4.12492 14.9493 4.36763C14.3746 4.61034 13.8524 4.96607 13.4126 5.41452L12.4998 6.34476L11.587 5.41452C10.6986 4.50912 9.49364 4.00047 8.23725 4.00047C6.98085 4.00047 5.77591 4.50912 4.88751 5.41452C3.9991 6.31992 3.5 7.5479 3.5 8.82833C3.5 10.1088 3.9991 11.3367 4.88751 12.2421L5.80029 13.1724L12.4998 20L19.1992 13.1724L20.112 12.2421C20.5521 11.7939 20.9011 11.2617 21.1393 10.676C21.3774 10.0902 21.5 9.46237 21.5 8.82833C21.5 8.19428 21.3774 7.56645 21.1393 6.9807C20.9011 6.39494 20.5521 5.86275 20.112 5.41452Z" stroke="#323232" stroke-width="2" stroke-linecap="round" stroke-linejoin="round"/>
</g>
</svg>
