<svg width="38" height="38" viewBox="0 0 38 38" fill="none" xmlns="http://www.w3.org/2000/svg">
<circle cx="19" cy="19" r="18.5" fill="white" stroke="#1978EE"/>
<path d="M6.50052 18.9995C6.50052 16.8053 7.0781 14.6497 8.1752 12.7495C9.2723 10.8492 10.8503 9.27127 12.7505 8.17416C14.6508 7.07706 16.8063 6.49948 19.0005 6.49948C21.1947 6.49948 23.3503 7.07706 25.2505 8.17416" stroke="#1978EE" stroke-linecap="round"/>
<circle cx="19.0026" cy="18.9987" r="3.16667" fill="white" stroke="#1978EE"/>
<path d="M29.8253 12.75C30.9224 14.6502 31.5 16.8058 31.5 19" stroke="#1978EE" stroke-linecap="round"/>
<path d="M29.7832 9.11918C29.9785 8.92392 29.9785 8.60733 29.7832 8.41207C29.588 8.21681 29.2714 8.21681 29.0761 8.41207L29.7832 9.11918ZM21.7832 17.1192L29.7832 9.11918L29.0761 8.41207L21.0761 16.4121L21.7832 17.1192Z" fill="#1978EE"/>
</svg>
