<svg width="86" height="86" viewBox="0 0 86 86" fill="none" xmlns="http://www.w3.org/2000/svg">
<circle cx="43" cy="43" r="42.5" stroke="#C6DFF5" stroke-opacity="0.7"/>
<circle cx="43" cy="43" r="18.5" fill="white" stroke="#1978EE"/>
<path d="M30.5005 42.9995C30.5005 40.8053 31.0781 38.6497 32.1752 36.7495C33.2723 34.8492 34.8503 33.2713 36.7505 32.1742C38.6508 31.0771 40.8063 30.4995 43.0005 30.4995C45.1947 30.4995 47.3503 31.0771 49.2505 32.1742" stroke="#1978EE" stroke-linecap="round"/>
<circle cx="42.9987" cy="43.0007" r="3.16667" fill="white" stroke="#1978EE"/>
<path d="M53.8253 36.751C54.9224 38.6512 55.5 40.8068 55.5 43.001" stroke="#1978EE" stroke-linecap="round"/>
<path d="M53.7832 33.1192C53.9785 32.9239 53.9785 32.6073 53.7832 32.4121C53.588 32.2168 53.2714 32.2168 53.0761 32.4121L53.7832 33.1192ZM45.7832 41.1192L53.7832 33.1192L53.0761 32.4121L45.0761 40.4121L45.7832 41.1192Z" fill="#1978EE"/>
</svg>
