<svg width="53" height="53" viewBox="0 0 53 53" fill="none" xmlns="http://www.w3.org/2000/svg">
<rect width="53" height="53" rx="26.5" fill="#C6DFF5" fill-opacity="0.2"/>
<path d="M15.4905 26.7632L18.8287 28.4322C19.3827 28.7092 20.0345 28.3064 20.0345 27.687L20.0345 24.3488C20.0345 23.7294 19.3827 23.3266 18.8287 23.6036L15.4905 25.2727C14.8764 25.5797 14.8764 26.4561 15.4905 26.7632Z" stroke="#0149BF"/>
<path d="M37.5095 26.7632L34.1713 28.4322C33.6173 28.7092 32.9655 28.3064 32.9655 27.687L32.9655 24.3488C32.9655 23.7294 33.6173 23.3266 34.1713 23.6036L37.5095 25.2727C38.1236 25.5797 38.1236 26.4561 37.5095 26.7632Z" stroke="#0149BF"/>
<line x1="20.0312" y1="25.9492" x2="32.9603" y2="25.9492" stroke="#0149BF"/>
</svg>
