<svg width="17" height="21" viewBox="0 0 17 21" fill="none" xmlns="http://www.w3.org/2000/svg">
<path d="M8.5 21C8.5 21 16.375 13.5371 16.375 7.875C16.375 5.78642 15.5453 3.78338 14.0685 2.30653C12.5916 0.829685 10.5886 0 8.5 0C6.41142 0 4.40838 0.829685 2.93153 2.30653C1.45469 3.78338 0.625 5.78642 0.625 7.875C0.625 13.5371 8.5 21 8.5 21ZM8.5 11.8125C7.45571 11.8125 6.45419 11.3977 5.71577 10.6592C4.97734 9.92081 4.5625 8.91929 4.5625 7.875C4.5625 6.83071 4.97734 5.82919 5.71577 5.09077C6.45419 4.35234 7.45571 3.9375 8.5 3.9375C9.54429 3.9375 10.5458 4.35234 11.2842 5.09077C12.0227 5.82919 12.4375 6.83071 12.4375 7.875C12.4375 8.91929 12.0227 9.92081 11.2842 10.6592C10.5458 11.3977 9.54429 11.8125 8.5 11.8125Z" fill="#323232"/>
</svg>
