<svg width="20" height="20" viewBox="0 0 20 20" fill="none" xmlns="http://www.w3.org/2000/svg">
<path d="M3.98828 5.97967C3.98828 7.08056 4.88073 7.97302 5.98162 7.97302C7.08252 7.97302 7.97497 7.08056 7.97497 5.97967C7.97497 4.87878 7.08252 3.98633 5.98162 3.98633C4.88073 3.98633 3.98828 4.87878 3.98828 5.97967Z" fill="white"/>
<path d="M3.98828 13.9533C3.98828 15.0542 4.88073 15.9466 5.98162 15.9466C7.08252 15.9466 7.97497 15.0542 7.97497 13.9533C7.97497 12.8524 7.08252 11.96 5.98162 11.96C4.88073 11.96 3.98828 12.8524 3.98828 13.9533Z" fill="white"/>
<path d="M11.9609 5.97967C11.9609 7.08056 12.8534 7.97302 13.9543 7.97302C15.0552 7.97302 15.9476 7.08056 15.9476 5.97967C15.9476 4.87878 15.0552 3.98633 13.9543 3.98633C12.8534 3.98633 11.9609 4.87878 11.9609 5.97967Z" fill="white"/>
<path d="M11.9609 13.9533C11.9609 15.0542 12.8534 15.9466 13.9543 15.9466C15.0552 15.9466 15.9476 15.0542 15.9476 13.9533C15.9476 12.8524 15.0552 11.96 13.9543 11.96C12.8534 11.96 11.9609 12.8524 11.9609 13.9533Z" fill="white"/>
</svg>
