<svg width="83" height="83" viewBox="0 0 83 83" fill="none" xmlns="http://www.w3.org/2000/svg">
<g clip-path="url(#clip0_915_8870)">
<circle cx="41.5" cy="41.5" r="41" stroke="#C6DFF5"/>
<path d="M27 41.3993C27 34.6148 27 31.2049 29.0324 29.1025C31.0819 27 34.361 27 40.9193 27H42.0807C48.639 27 51.9352 27 53.9676 29.1025C56 31.2049 56 34.6148 56 41.3993V42.6007C56 49.3852 56 52.7951 53.9676 54.8975C51.9352 57 48.639 57 42.0807 57H40.9193C34.361 57 31.0648 57 29.0324 54.8975C27 52.7951 27 49.4028 27 42.6007V41.3993Z" fill="#FF7700"/>
<path d="M41.4987 41.9288C42.9162 41.9288 44.1971 41.3281 45.1194 40.3741C46.0417 39.42 46.6223 38.0949 46.6223 36.6285C46.6223 35.162 46.0417 33.837 45.1194 32.8829C44.1971 31.9288 42.9162 31.3281 41.4987 31.3281C40.0811 31.3281 38.8002 31.9288 37.8779 32.8829C36.9557 33.837 36.375 35.162 36.375 36.6285C36.375 38.0949 36.9557 39.42 37.8779 40.3741C38.8002 41.3281 40.0982 41.9288 41.4987 41.9288ZM39.8591 34.9147C40.2861 34.473 40.8668 34.208 41.4987 34.208C42.1477 34.208 42.7284 34.473 43.1382 34.9147C43.5652 35.3564 43.8214 35.9571 43.8214 36.6108C43.8214 37.2822 43.5652 37.8829 43.1382 38.3069C42.7113 38.7486 42.1306 39.0136 41.4987 39.0136C40.8497 39.0136 40.269 38.7486 39.8591 38.3069C39.4321 37.8652 39.1759 37.2645 39.1759 36.6108C39.1759 35.9571 39.4492 35.3564 39.8591 34.9147Z" fill="white"/>
<path d="M48.3966 44.0688L46.8937 41.9487C46.8083 41.825 46.6375 41.8073 46.535 41.9134C45.1175 43.1678 43.3754 43.9805 41.4967 43.9805C39.618 43.9805 37.876 43.1678 36.4584 41.9134C36.356 41.825 36.1852 41.8427 36.0998 41.9487L34.5968 44.0688C34.5285 44.1748 34.5456 44.3162 34.631 44.4045C35.8948 45.4646 37.3636 46.189 38.9007 46.56L35.724 52.3551C35.6387 52.5141 35.7582 52.7261 35.929 52.7261H39.0374C39.1398 52.7261 39.2252 52.6731 39.2594 52.5671L41.4796 47.4434L43.6999 52.5671C43.7341 52.6554 43.8195 52.7261 43.9219 52.7261H47.0303C47.2182 52.7261 47.3206 52.5317 47.2353 52.3551L44.0586 46.56C45.5957 46.189 47.0645 45.4823 48.3283 44.4045C48.4649 44.3162 48.482 44.1748 48.3966 44.0688Z" fill="white"/>
</g>
<defs>
<clipPath id="clip0_915_8870">
<rect width="83" height="83" fill="white"/>
</clipPath>
</defs>
</svg>
