<svg width="22" height="16" viewBox="0 0 22 16" fill="none" xmlns="http://www.w3.org/2000/svg">
<path id="Union" fill-rule="evenodd" clip-rule="evenodd" d="M2.0599 0.5C1.289 0.5 0.664062 1.12494 0.664062 1.89583V5.24037C0.664062 6.01127 1.289 6.6362 2.0599 6.6362H20.2682C21.0391 6.6362 21.6641 6.01127 21.6641 5.24037V1.89583C21.6641 1.12494 21.0391 0.5 20.2682 0.5H2.0599ZM2.0599 9.36387C1.289 9.36387 0.664062 9.98881 0.664062 10.7597V14.1042C0.664062 14.8751 1.289 15.5001 2.0599 15.5001H20.2682C21.0391 15.5001 21.6641 14.8751 21.6641 14.1042V10.7597C21.6641 9.98881 21.0391 9.36387 20.2682 9.36387H2.0599Z" fill="#323232" />
</svg>
