<svg width="83" height="83" viewBox="0 0 83 83" fill="none" xmlns="http://www.w3.org/2000/svg">
<g clip-path="url(#clip0_915_8876)">
<circle cx="41.5" cy="41.5" r="41" stroke="#C6DFF5"/>
<path d="M40 43C40.4295 43.5741 40.9774 44.0491 41.6066 44.3929C42.2357 44.7367 42.9315 44.9411 43.6467 44.9923C44.3618 45.0435 45.0796 44.9403 45.7513 44.6897C46.4231 44.4392 47.0331 44.047 47.54 43.54L50.54 40.54C51.4508 39.597 51.9548 38.3339 51.9434 37.023C51.932 35.712 51.4061 34.4579 50.4791 33.5309C49.5521 32.6038 48.298 32.078 46.987 32.0666C45.676 32.0552 44.413 32.5592 43.47 33.47L41.75 35.18" stroke="#0149BF" stroke-width="2" stroke-linecap="round" stroke-linejoin="round"/>
<path d="M43.9982 41.0012C43.5688 40.4271 43.0209 39.952 42.3917 39.6083C41.7625 39.2645 41.0667 39.0601 40.3516 39.0089C39.6365 38.9577 38.9187 39.0608 38.2469 39.3114C37.5751 39.562 36.9651 39.9541 36.4582 40.4612L33.4582 43.4612C32.5475 44.4042 32.0435 45.6672 32.0549 46.9782C32.0663 48.2892 32.5921 49.5433 33.5192 50.4703C34.4462 51.3973 35.7003 51.9232 37.0112 51.9346C38.3222 51.946 39.5852 51.442 40.5282 50.5312L42.2382 48.8212" stroke="#0149BF" stroke-width="2" stroke-linecap="round" stroke-linejoin="round"/>
</g>
<defs>
<clipPath id="clip0_915_8876">
<rect width="83" height="83" fill="white"/>
</clipPath>
</defs>
</svg>
