<svg width="21" height="18" viewBox="0 0 21 18" fill="none" xmlns="http://www.w3.org/2000/svg">
<g id="Group">
<path id="Vector" fill-rule="evenodd" clip-rule="evenodd" d="M18.0169 0.531528C18.264 0.427519 18.5345 0.391647 18.8002 0.427645C19.0659 0.463643 19.317 0.570196 19.5276 0.736213C19.7381 0.90223 19.9003 1.12164 19.9973 1.37161C20.0942 1.62158 20.1224 1.89297 20.0789 2.15753L17.8109 15.9145C17.5909 17.2415 16.1349 18.0025 14.9179 17.3415C13.8999 16.7885 12.3879 15.9365 11.0279 15.0475C10.3479 14.6025 8.26489 13.1775 8.52089 12.1635C8.74089 11.2965 12.2409 8.03853 14.2409 6.10153C15.0259 5.34053 14.6679 4.90153 13.7409 5.60153C11.4389 7.33953 7.74289 9.98253 6.52089 10.7265C5.44289 11.3825 4.88089 11.4945 4.20889 11.3825C2.98289 11.1785 1.84589 10.8625 0.917888 10.4775C-0.336112 9.95753 -0.275112 8.23353 0.916888 7.73153L18.0169 0.531528Z" fill="#0149BF"/>
</g>
</svg>
