<svg width="26" height="23" viewBox="0 0 26 23" fill="none" xmlns="http://www.w3.org/2000/svg">
<path fill-rule="evenodd" clip-rule="evenodd" d="M22.7889 0.752855C23.0988 0.617164 23.4379 0.570365 23.771 0.617329C24.1041 0.664292 24.4191 0.803302 24.683 1.01989C24.947 1.23647 25.1504 1.52272 25.2719 1.84883C25.3935 2.17494 25.4288 2.52899 25.3743 2.87414L22.5306 20.8216C22.2548 22.5528 20.4293 23.5456 18.9034 22.6832C17.627 21.9618 15.7312 20.8503 14.0261 19.6905C13.1735 19.1099 10.5618 17.2509 10.8828 15.928C11.1586 14.7969 15.5469 10.5465 18.0546 8.01949C19.0388 7.02669 18.5899 6.45397 17.4276 7.36719C14.5414 9.63459 9.90731 13.0827 8.37516 14.0533C7.02355 14.9091 6.31891 15.0552 5.47635 14.9091C3.93919 14.643 2.51361 14.2307 1.35007 13.7284C-0.222201 13.05 -0.145719 10.8009 1.34882 10.146L22.7889 0.752855Z" fill="white"/>
</svg>
