<svg width="83" height="83" viewBox="0 0 83 83" fill="none" xmlns="http://www.w3.org/2000/svg">
<g clip-path="url(#clip0_915_8860)">
<circle cx="41.5" cy="41.5" r="41" stroke="#C6DFF5"/>
<path fill-rule="evenodd" clip-rule="evenodd" d="M48.7747 33.43C49.0218 33.326 49.2923 33.2901 49.558 33.3261C49.8237 33.3621 50.0749 33.4686 50.2854 33.6347C50.4959 33.8007 50.6581 34.0201 50.7551 34.27C50.852 34.52 50.8802 34.7914 50.8367 35.056L48.5687 48.813C48.3487 50.14 46.8927 50.901 45.6757 50.24C44.6577 49.687 43.1457 48.835 41.7857 47.946C41.1057 47.501 39.0227 46.076 39.2787 45.062C39.4987 44.195 42.9987 40.937 44.9987 39C45.7837 38.239 45.4257 37.8 44.4987 38.5C42.1967 40.238 38.5007 42.881 37.2787 43.625C36.2007 44.281 35.6387 44.393 34.9667 44.281C33.7407 44.077 32.6037 43.761 31.6757 43.376C30.4217 42.856 30.4827 41.132 31.6747 40.63L48.7747 33.43Z" fill="#19B2EE"/>
</g>
<defs>
<clipPath id="clip0_915_8860">
<rect width="83" height="83" fill="white"/>
</clipPath>
</defs>
</svg>
