<svg width="40" height="40" viewBox="0 0 40 40" fill="none" xmlns="http://www.w3.org/2000/svg">
<path id="Union" fill-rule="evenodd" clip-rule="evenodd" d="M1.8125 1.79688H7.53282V-0.203125H1.45253C0.546766 -0.203125 -0.1875 0.531143 -0.1875 1.43691V7.5172H1.8125V1.79688ZM18.8445 3.70771C19.5767 3.33776 20.4405 3.33505 21.175 3.7004L35.8975 11.0235L36.4522 11.2994V11.9189V27.0976C36.4522 28.0766 35.9022 28.9727 35.0293 29.4159L20.4642 36.8117L20.0079 37.0434L19.553 36.8088L5.21891 29.4154C4.35408 28.9693 3.81072 28.0777 3.81072 27.1046V11.9189V11.3037L4.35975 11.0263L18.8445 3.70771ZM20.2843 5.4911C20.1148 5.40678 19.9154 5.40741 19.7465 5.49279L7.03743 11.9142L20.0149 18.4029L33.1974 11.9142L20.2843 5.4911ZM34.4522 13.5257L21.0114 20.1416V34.2907L34.1238 27.6326C34.3253 27.5303 34.4522 27.3235 34.4522 27.0976V13.5257ZM19.0114 34.2791V20.1373L5.81072 13.5369V27.1046C5.81072 27.3292 5.93612 27.5349 6.13571 27.6379L19.0114 34.2791ZM32.3294 38.3596H38.0498V32.6393H40.0498V38.7196C40.0498 39.6254 39.3155 40.3596 38.4097 40.3596H32.3294V38.3596ZM38.0498 1.79688H32.3294V-0.203125H38.4097C39.3155 -0.203125 40.0498 0.531143 40.0498 1.43691V7.5172H38.0498V1.79688ZM7.53282 38.3596H1.8125L1.8125 32.6393H-0.1875V38.7196C-0.1875 39.6254 0.546766 40.3596 1.45253 40.3596H7.53282V38.3596Z" fill="#0149BF"/>
</svg>
