<svg width="83" height="83" viewBox="0 0 83 83" fill="none" xmlns="http://www.w3.org/2000/svg">
<g clip-path="url(#clip0_915_8866)">
<circle cx="41.5" cy="41.5" r="41" stroke="#C6DFF5"/>
<path d="M31.68 31.68C30 33.376 30 36.088 30 41.52V42.48C30 47.904 30 50.616 31.68 52.32C33.376 54 36.088 54 41.52 54H42.48C47.904 54 50.616 54 52.32 52.32C54 50.624 54 47.912 54 42.48V41.52C54 36.096 54 33.384 52.32 31.68C50.624 30 47.912 30 42.48 30H41.52C36.096 30 33.384 30 31.68 31.68ZM34.048 37.304H36.8C36.888 41.88 38.904 43.816 40.504 44.216V37.304H43.088V41.248C44.664 41.08 46.328 39.28 46.888 37.296H49.464C49.2538 38.323 48.8342 39.2956 48.2313 40.1531C47.6284 41.0106 46.8552 41.7347 45.96 42.28C46.9592 42.7772 47.8417 43.4806 48.5491 44.3438C49.2566 45.2071 49.7729 46.2105 50.064 47.288H47.224C46.616 45.392 45.096 43.92 43.088 43.72V47.288H42.768C37.296 47.288 34.176 43.544 34.048 37.304Z" fill="#0066FF"/>
</g>
<defs>
<clipPath id="clip0_915_8866">
<rect width="83" height="83" fill="white"/>
</clipPath>
</defs>
</svg>
