<svg width="53" height="53" viewBox="0 0 53 53" fill="none" xmlns="http://www.w3.org/2000/svg">
<rect width="53" height="53" rx="26.5" fill="#C6DFF5" fill-opacity="0.2"/>
<path d="M20.4453 28.0847H24.7046V33.1372C24.7046 33.3537 24.844 33.5457 25.0499 33.6126C25.2559 33.6796 25.4816 33.6064 25.6089 33.4312L31.9546 24.7059C32.0652 24.5538 32.0811 24.3525 31.9958 24.185C31.9105 24.0174 31.7383 23.9118 31.5503 23.9118H27.291V18.8594C27.291 18.6428 27.1516 18.4509 26.9456 18.3839C26.7397 18.3169 26.514 18.3901 26.3866 18.5653L20.0409 27.2906C19.9303 27.4427 19.9144 27.644 19.9998 27.8116C20.0851 27.9792 20.2573 28.0847 20.4453 28.0847Z" stroke="#0149BF" stroke-linecap="round" stroke-linejoin="round"/>
</svg>
