<svg width="31" height="30" viewBox="0 0 31 30" fill="none" xmlns="http://www.w3.org/2000/svg">
<path d="M25.9164 4.67718C24.5617 3.31612 22.9483 2.23694 21.1703 1.50252C19.3922 0.768107 17.485 0.393147 15.5599 0.399493C7.49334 0.399493 0.918972 6.94098 0.918972 14.9672C0.918972 17.5396 1.59857 20.0386 2.86912 22.2436L0.800781 29.7994L8.55706 27.7708C10.6993 28.9321 13.1074 29.5495 15.5599 29.5495C23.6264 29.5495 30.2008 23.008 30.2008 14.9819C30.2008 11.0864 28.6791 7.42607 25.9164 4.67718ZM15.5599 27.0799C13.3733 27.0799 11.2311 26.4919 9.35485 25.3894L8.91163 25.1248L4.30219 26.3302L5.52842 21.8614L5.23294 21.4057C4.01786 19.4757 3.3728 17.2446 3.37143 14.9672C3.37143 8.29337 8.83776 2.85439 15.5451 2.85439C18.7954 2.85439 21.8535 4.11858 24.1435 6.41178C25.2776 7.53465 26.1763 8.87041 26.7875 10.3416C27.3987 11.8127 27.7102 13.39 27.704 14.9819C27.7335 21.6556 22.2672 27.0799 15.5599 27.0799ZM22.2377 18.0247C21.8683 17.8483 20.0659 16.9664 19.7409 16.8341C19.4011 16.7165 19.1647 16.6577 18.9135 17.0105C18.6624 17.3779 17.968 18.2011 17.7612 18.4363C17.5543 18.6862 17.3327 18.7156 16.9634 18.5245C16.594 18.3481 15.4121 17.9512 14.0234 16.7165C12.9301 15.7463 12.2062 14.5556 11.9846 14.1881C11.7778 13.8206 11.9551 13.6295 12.1471 13.4384C12.3096 13.2767 12.5165 13.0121 12.6937 12.8063C12.871 12.6005 12.9449 12.4388 13.0631 12.2036C13.1813 11.9537 13.1222 11.7479 13.0335 11.5715C12.9449 11.3951 12.2062 9.60167 11.9107 8.86667C11.6153 8.16107 11.305 8.24927 11.0834 8.23457H10.3742C10.1231 8.23457 9.73897 8.32277 9.39917 8.69027C9.07415 9.05777 8.12862 9.93977 8.12862 11.7332C8.12862 13.5266 9.44349 15.2612 9.62078 15.4964C9.79807 15.7463 12.2062 19.4212 15.8701 20.9941C16.7418 21.3763 17.4214 21.5968 17.9532 21.7585C18.8249 22.0378 19.6227 21.9937 20.258 21.9055C20.9671 21.8026 22.4297 21.0235 22.7252 20.1709C23.0355 19.3183 23.0355 18.598 22.932 18.4363C22.8286 18.2746 22.607 18.2011 22.2377 18.0247Z" fill="white"/>
</svg>
