<svg width="20" height="20" viewBox="0 0 20 20" fill="none" xmlns="http://www.w3.org/2000/svg">
<path id="Vector" d="M17.1016 2.91005C16.1846 1.98416 15.0926 1.25002 13.8891 0.750416C12.6856 0.250812 11.3946 -0.00426317 10.0916 5.38951e-05C4.63156 5.38951e-05 0.181563 4.45005 0.181563 9.91005C0.181563 11.6601 0.641563 13.3601 1.50156 14.8601L0.101562 20.0001L5.35156 18.6201C6.80156 19.4101 8.43156 19.8301 10.0916 19.8301C15.5516 19.8301 20.0016 15.3801 20.0016 9.92005C20.0016 7.27005 18.9716 4.78005 17.1016 2.91005ZM10.0916 18.1501C8.61156 18.1501 7.16156 17.7501 5.89156 17.0001L5.59156 16.8201L2.47156 17.6401L3.30156 14.6001L3.10156 14.2901C2.27911 12.9771 1.84249 11.4593 1.84156 9.91005C1.84156 5.37005 5.54156 1.67005 10.0816 1.67005C12.2816 1.67005 14.3516 2.53005 15.9016 4.09005C16.6692 4.85392 17.2775 5.7626 17.6912 6.76338C18.1049 7.76417 18.3158 8.83714 18.3116 9.92005C18.3316 14.4601 14.6316 18.1501 10.0916 18.1501ZM14.6116 11.9901C14.3616 11.8701 13.1416 11.2701 12.9216 11.1801C12.6916 11.1001 12.5316 11.0601 12.3616 11.3001C12.1916 11.5501 11.7216 12.1101 11.5816 12.2701C11.4416 12.4401 11.2916 12.4601 11.0416 12.3301C10.7916 12.2101 9.99156 11.9401 9.05156 11.1001C8.31156 10.4401 7.82156 9.63005 7.67156 9.38005C7.53156 9.13005 7.65156 9.00005 7.78156 8.87005C7.89156 8.76005 8.03156 8.58005 8.15156 8.44005C8.27156 8.30005 8.32156 8.19005 8.40156 8.03005C8.48156 7.86005 8.44156 7.72005 8.38156 7.60005C8.32156 7.48005 7.82156 6.26005 7.62156 5.76005C7.42156 5.28005 7.21156 5.34005 7.06156 5.33005H6.58156C6.41156 5.33005 6.15156 5.39005 5.92156 5.64005C5.70156 5.89005 5.06156 6.49005 5.06156 7.71005C5.06156 8.93005 5.95156 10.1101 6.07156 10.2701C6.19156 10.4401 7.82156 12.9401 10.3016 14.0101C10.8916 14.2701 11.3516 14.4201 11.7116 14.5301C12.3016 14.7201 12.8416 14.6901 13.2716 14.6301C13.7516 14.5601 14.7416 14.0301 14.9416 13.4501C15.1516 12.8701 15.1516 12.3801 15.0816 12.2701C15.0116 12.1601 14.8616 12.1101 14.6116 11.9901Z" fill="#0149BF"/>
</svg>
